<?xml version="1.0" standalone="no"?>
<!DOCTYPE svg PUBLIC "-//W3C//DTD SVG 20010904//EN"
 "http://www.w3.org/TR/2001/REC-SVG-20010904/DTD/svg10.dtd">
<svg version="1.0" xmlns="http://www.w3.org/2000/svg"
 width="300.000000pt" height="300.000000pt" viewBox="0 0 300.000000 300.000000"
 preserveAspectRatio="xMidYMid meet">
<metadata>
Created by potrace 1.10, written by Peter Selinger 2001-2011
</metadata>
<g transform="translate(0.000000,300.000000) scale(0.100000,-0.100000)"
fill="#000000" stroke="none">
<path d="M1435 1737 c-14 -21 -14 -22 12 -29 40 -11 56 -3 44 21 -16 29 -39
33 -56 8z"/>
<path d="M1530 1739 c0 -6 -12 -26 -26 -45 -31 -40 -23 -44 22 -9 18 14 37 25
43 25 14 0 14 13 -1 28 -15 15 -38 16 -38 1z"/>
<path d="M1330 1722 c0 -25 20 -82 28 -82 4 1 17 16 29 35 l21 34 -31 12 c-18
7 -35 14 -39 17 -5 2 -8 -5 -8 -16z"/>
<path d="M1621 1724 l-34 -15 27 -27 c22 -23 28 -25 36 -12 8 13 15 71 8 69
-2 0 -18 -7 -37 -15z"/>
<path d="M1680 1663 c-27 -22 -31 -32 -27 -57 7 -45 -17 -107 -55 -138 -38
-33 -27 -37 20 -8 40 24 69 70 78 124 3 23 12 56 20 74 16 39 6 41 -36 5z"/>
<path d="M1284 1653 c7 -16 19 -54 25 -85 9 -43 20 -64 42 -83 17 -14 34 -25
37 -26 4 0 17 -2 28 -3 l21 -2 -20 33 c-11 19 -17 36 -14 39 3 3 10 -4 17 -15
6 -12 15 -21 20 -21 19 0 10 58 -19 121 l-29 64 -16 -39 c-25 -59 -21 -109 12
-148 27 -33 27 -33 2 -17 -35 22 -60 76 -60 130 0 32 -6 51 -18 62 -30 27 -45
22 -28 -10z"/>
<path d="M1582 1615 c-12 -31 -22 -73 -22 -93 1 -35 2 -36 15 -18 8 11 15 32
15 46 0 15 9 37 20 50 24 27 24 31 7 54 -12 16 -15 13 -35 -39z"/>
<path d="M1492 1525 c-15 -32 -16 -72 -2 -80 6 -3 10 2 10 12 0 14 2 15 9 5 7
-11 10 -10 15 3 10 26 7 49 -7 69 -12 17 -14 16 -25 -9z"/>
</g>
</svg>
