<svg version="1.2" xmlns="http://www.w3.org/2000/svg" viewBox="0 0 210 160" width="210" height="160">
	<title>Mada</title>
	<defs>
		<clipPath clipPathUnits="userSpaceOnUse" id="cp1">
			<path d="m-263-290h750v750h-750z"/>
		</clipPath>
	</defs>
	<style>
		.s0 { fill: #dfaf46 } 
		.s1 { fill: #21292f } 
	</style>
	<g id="Clip-Path: Page 1" clip-path="url(#cp1)">
		<g id="Page 1">
			<path id="Path 4" fill-rule="evenodd" class="s0" d="m44.7 66.4c-11.8 31.1-2.5 58.3 35.5 78.1l4.6 2.4c-83.1-24-45.1-46.8-76.8-107.4q23.9 2.1 36.7 26.9zm101.1-37.6c11.6-12.8 26.3-6.7 33.2-18.2q4.3 32.1-9.2 48.4c-5.1-11.4-13.3-23.7-24-30.2zm0 0z"/>
			<path id="Path 5" fill-rule="evenodd" class="s1" d="m207.7 35.8q-25.9 5.1-36 28c10.9 30.9-3 65.2-32.6 79.7l-3.7 1.8c69.3-16.4 50.8-67.7 72.3-109.5z"/>
			<path id="Path 6" fill-rule="evenodd" class="s0" d="m151.5 40.2c-1.5 29.9-24.7 42.5-18.2 86.6q12.3-6.5 18.4-24.1-1.6 22-14.2 37.4c38.6-19 45.9-71.1 14-99.9z"/>
			<path id="Path 7" fill-rule="evenodd" class="s1" d="m46.5 62.3q12.3-28.1 23.9-33.8-13.6-4.8-36-14.6-2.1 30.3 12.1 48.4z"/>
			<path id="Path 8" fill-rule="evenodd" class="s0" d="m70.9 27.4q21.5-0.1 30.9 7.5c15.6-12.7-3.5-24.8-14.8-30.7-3.8 6.3-11.1 12.4-16.1 23.2z"/>
			<path id="Path 9" fill-rule="evenodd" class="s1" d="m122.5 7.1q1.5 13-16.8 27.7l4.3 3.3c0.1 2.3-6.6 7.4-11.8 10.4 19.5-3.7 23.6-23.4 45.3-21.9q-3.1-14.1-21-19.5zm-39.5 120.1c12.2-42.2-19.4-57.4-19.6-86.7q-47.2 66.4 18.6 100.6-15.4-15.7-17.1-38 6 18.1 18.1 24.1z"/>
			<path id="Path 10" fill-rule="evenodd" class="s1" d="m107.2 147.7q2.2-7 0.2-15.9 5.5 6.1 4.1 14.2 22.7-28.1-3.2-46.7c-6.4 19-20.6 23.4-1.1 48.5z"/>
		</g>
	</g>
</svg>