<?xml version="1.0" encoding="utf-8"?>

<!DOCTYPE svg PUBLIC "-//W3C//DTD SVG 1.1//EN" "http://www.w3.org/Graphics/SVG/1.1/DTD/svg11.dtd">
<svg version="1.1" id="Layer_1" xmlns="http://www.w3.org/2000/svg" xmlns:xlink="http://www.w3.org/1999/xlink" x="0px" y="0px"
	 viewBox="0 0 1307.26 1644.827" enable-background="new 0 0 1307.26 1644.827" xml:space="preserve">
<g>
	<path stroke="#000000" stroke-width="0.1027" d="M342.197,24.188c5.892-1.38,11.982-0.876,17.994-1.128
		c6.9-0.898,13.909-0.832,20.82,0.022c6.254,0.175,12.595-0.175,18.75,1.227c8.477-0.088,16.702,2.092,25.092,2.826
		c45.638,7.502,89.666,23.284,130.726,44.389c34.05,17.6,66.338,38.65,96.04,62.877c0.898,0.942,2.486,1.369,3.625,0.537
		c48.387-39.187,103.17-70.839,162.082-91.243c1.73-0.69,4.085-1.325,5.662,0.088c8.192,6.779,16.286,13.701,24.664,20.251
		c1.851,0.997,2.245,3.198,2.979,5.005c18.137,58.715,36.197,117.452,54.323,176.167c-0.022,7.951,0.898,16.395-2.64,23.81
		c-21.444,45.474-42.516,91.133-64.005,136.596c-0.931,1.796-1.774,3.833-1.052,5.881c5.509,13.767,11.642,27.315,16.735,41.257
		c0.504,0.022,1.511,0.066,2.004,0.088c6.56-10.635,12.365-21.74,18.794-32.462c2.267-3.603,3.822-7.579,5.158-11.609
		c2.125-6.933,6.834-12.595,10.427-18.794c23.361-38.048,46.876-76.008,70.291-114.035c1.862-3.319,4.501-6.319,5.586-9.988
		c0.219-33.503-0.142-67.017,0.186-100.509c2.88-6.298,6.396-12.42,9.78-18.487c4.896-4.775,11.346-7.601,16.998-11.412
		c31.75-19.867,63.348-40.03,95.23-59.679c6.955-0.548,13.964-0.164,20.941-0.219c2.596-0.241,4.49,1.807,6.56,3.067
		c33.744,23.153,63.764,51.465,89.797,82.974c27.238,33.01,49.405,70.445,63.632,110.88c8.466,23.295,13.833,47.609,17.217,72.131
		c0.92,4.939,0.285,10.032,1.49,14.939c1.917,16.866,1.183,33.875,1.325,50.829c0.033,7.426-0.942,14.807-1.084,22.244
		c-1.544,8.488-1.183,17.217-3.001,25.683c-0.372,4.534-1.051,9.025-2.059,13.46c-0.767,10.317-3.636,20.316-5.049,30.546
		c-1.259,4.293-2.245,8.707-1.917,13.219c-0.307-1.457-0.591-2.913-0.865-4.359c-0.077,4.151-0.854,8.258-2.037,12.223
		c-20.437,86.709-54.969,169.091-84.343,252.964c-15.881,44.937-30.195,90.575-39.45,137.385
		c-3.176,18.641-6.626,37.303-7.152,56.251c-1.04,3.943-0.953,8.017-0.953,12.069c-0.701,16.79,0.559,33.645-0.843,50.413
		c0.131,9.835-0.252,19.67-0.263,29.516c-1.993,9.737-0.339,19.802-1.752,29.626c-0.252,5.027-0.208,10.087-0.482,15.136
		c-1.752,7.239-0.35,14.786-1.599,22.102c-0.405,5.093-0.46,10.218-1.38,15.256c0.109,11.774-2.355,23.339-2.398,35.102
		c-0.843,7.667-2.169,15.322-2.136,23.076c-3.581,29.538-6.703,59.153-11.171,88.592c-1.413,5.301-0.394,10.963-2.431,16.144
		c-3.713,26.264-8.674,52.396-13.975,78.396c-1.292,3.33-0.789,6.889-0.778,10.372c-0.383-1.347-0.548-2.727-0.756-4.052
		c-0.679,4.677-2.169,9.298-1.479,14.096c-0.285-1.063-0.548-2.103-0.8-3.121c-4.26,21.817-9.934,43.382-15.936,64.793
		c-6.462,22.704-13.844,45.178-22.835,67.017c-9.101,21.817-19.67,43.327-34.51,61.88c-5.958,6.801-12.245,13.548-20.021,18.301
		c-7.338,4.688-15.968,7.995-24.774,7.579c-20.952,0.58-42.747-4.622-59.405-17.819c-18.104-14.61-29.144-36.033-36.46-57.729
		c-7.436-21.466-11.774-43.831-15.245-66.217c-0.668-5.903-2.497-11.664-2.245-17.655c-0.92-6.867-2.092-13.723-2.223-20.667
		c-1.062-6.473-1.665-13.033-1.895-19.583c0.504-5.608,0.099-11.226-0.613-16.779c-1.544-11.27-0.088-22.682-1.566-33.952
		c-1.818-16.341-1.249-32.791-1.435-49.187c0.296-8.061-1.369-16.034-1.062-24.095c-0.219-8.192,0.942-16.516-1.008-24.566
		c-0.997-25.354,1.325-50.928-2.037-76.14c0.044-8.839-0.767-17.611-2.201-26.318c0.033-7.086-2.256-13.833-2.957-20.82
		c-1.04-7.721-4.009-15.147-3.877-22.989c-0.285,1.424-0.569,2.859-0.832,4.304c-0.208-7.853-3.33-15.169-5.29-22.671
		c-13.34-44.356-37.61-86.227-73.183-116.378c-23.854-20.645-52.472-35.781-82.919-44.006c-11.533-3.067-23.339-5.772-35.365-4.863
		c-7.71-0.372-14.917,3.056-22.605,2.694c0.361,0.526,0.756,1.084,1.15,1.643c-5.115-0.23-9.824,1.884-14.621,3.307
		c-43.02,13.712-81.068,41.728-107.704,78.1c-24.402,33.601-39.746,73.227-47.478,113.859c-2.694,13.132-4.677,26.406-5.673,39.8
		c-2.486,13-1.084,26.395-2.99,39.45c0.022,28.487-0.044,56.963-0.219,85.438c0.383,5.509-0.909,10.93-0.712,16.428
		c0.186,8.05-0.361,16.078-0.252,24.128c-1.84,9.737-0.537,19.736-1.457,29.582c-0.723,5.312-0.449,10.711-0.81,16.078
		c-1.347,6.243-0.789,12.661-1.095,19.013c-0.898,8.346-1.96,16.702-2.223,25.125c-1.763,8.981-1.489,18.214-3.275,27.183
		c-3.089,23.953-7.294,47.85-14.085,71.069c-7.239,23.602-17.283,47.588-36.099,64.377c-18.86,17.316-45.857,22.54-70.686,20.448
		c-17.272-3.811-30.535-16.746-40.841-30.414c-15.202-20.711-25.946-44.269-35.091-68.156c-1.928-5.75-4.852-11.204-5.772-17.25
		c-0.263,0.361-0.515,0.734-0.767,1.139c-4.666-18.444-12.08-36.285-15.64-55.035c-0.307,0.504-0.591,1.03-0.876,1.577
		c-0.011-8.839-5.279-16.921-4.49-25.814c-0.241,0.986-0.449,2.004-0.668,3.034c-13.734-58.901-24.259-118.536-31.389-178.554
		c-0.361,1.49-0.657,3.023-0.975,4.556c0.997-8.094-0.329-16.144-1.796-24.062c0.197-8.039-2.103-15.826-2.344-23.832
		c-1.818-17.973-3.987-35.923-4.578-54.005c-2.026-11.346-1.227-22.989-3.089-34.335c-0.033-11.182-1.336-22.277-1.27-33.459
		c-2.103-10.832-0.175-22.003-1.796-32.901c-0.153-13.537-0.471-27.063-0.296-40.6c0.318-3.669-1.227-7.141-0.986-10.788
		c-0.011-16.111,0.58-32.309-1.939-48.255c-0.668-4.14,0.066-8.433-1.139-12.486c-0.953-3.362-1.325-6.812-1.533-10.273
		c-1.227-5.794-2.683-11.686-1.928-17.655c-0.296,1.084-0.602,2.18-0.931,3.286c-4.589-27.446-12.026-54.378-19.988-81.036
		c-28.049-91.802-67.17-179.868-93.554-272.196c-3.428-12.562-7.371-25.026-9.737-37.84c-0.274,1.029-0.526,2.07-0.778,3.121
		c0.701-6.297-1.873-12.223-2.946-18.312c-4.293-20.722-8.346-41.531-10.459-62.603c-1.687-9.769-1.27-19.791-2.859-29.571
		c-0.35-15.344-0.318-30.699-0.022-46.043c1.555-9.419,1.227-19.068,2.99-28.454c4.534-36.876,15.18-72.997,31.291-106.489
		c17.48-36.285,41.202-69.415,68.802-98.691c39.34-42.013,86.829-77.487,141.119-97.573c4.019-1.216,7.776-3.527,12.102-3.483
		c-0.482-0.274-0.953-0.548-1.413-0.81c5.323-0.679,10.273-2.902,15.465-4.206C306.066,29.062,323.973,25.064,342.197,24.188
		 M338.025,58.655c-4.961,1.161-10.153,0.482-15.059,1.971c-4.26,1.292-8.74,1.216-13.132,0.876
		c1.818,0.274,3.636,0.515,5.454,0.778c-1.84,0.252-3.691,0.46-5.498,0.832c-39.527,8.422-76.83,25.913-109.708,49.252
		c-28.739,20.382-54.323,45.025-76.885,72.022c-29.681,35.65-52.768,77.104-65.242,121.887c-4.271,14.742-7.075,29.867-9.298,45.014
		c0.23,5.553-1.019,10.941-1.96,16.374c-0.58,18.597-0.515,37.238-0.12,55.845c0.504,4.764,0.898,9.55,1.774,14.271
		c0.197,12.234,2.716,24.248,4.469,36.329c2.508,15.377,6.549,30.48,9.32,45.813c0.252-1.446,0.493-2.891,0.756-4.326
		c-0.055,2.158-0.252,4.337,0.142,6.484c19.966,78.068,50.512,152.805,77.476,228.595c18.049,50.566,34.675,101.834,45.079,154.591
		c3.264,18.597,6.67,37.227,7.656,56.108c2.388,19.615,0.624,39.461,1.413,59.164c1.391,8.324,0.394,16.779,0.778,25.168
		c2.026,11.555,0.011,23.427,1.687,35.036c0.613,7.283,0.066,14.599,0.394,21.904c-0.175,4.403,1.161,8.696,1.019,13.121
		c0.219,5.87-0.307,11.828,1.019,17.611c0.186,7.929,1.292,15.793,1.402,23.744c1.895,10.317,1.303,20.93,3.143,31.258
		c0.821,7.228,0.876,14.534,2.234,21.685c0.131,7.721,2.289,15.213,2.399,22.923c0.405,5.136,1.489,10.196,1.993,15.322
		c-0.121,6.089,1.96,11.916,2.289,17.973c2.552,17.83,4.907,35.682,8.148,53.414c0.613,3.45,0.591,6.966,0.438,10.47
		c0.372-1.807,0.493-3.647,0.81-5.443c0.197,7.338,2.267,14.402,3.264,21.642c1.807,9.287,3.373,18.63,5.564,27.84
		c0.843,9.605,5.049,18.794,4.589,28.531c0.263-1.479,0.515-2.946,0.81-4.392c0.799,10.405,5.005,20.174,6.1,30.524
		c0.241-1.029,0.482-2.048,0.734-3.045c-0.23,3.746,0.559,7.415,1.752,10.963c7.228,27.567,15.3,54.98,25.924,81.463
		c8.313,20.021,17.48,40.118,31.564,56.82c4.874,5.772,10.963,10.876,18.257,13.198c13.745,1.292,28.279,0.131,40.633-6.538
		c11.434-5.673,19.911-15.815,25.935-26.855c10.547-19.364,15.727-41.093,19.758-62.603c3.176-16.209,4.775-32.583,6.878-48.935
		c-0.131-6.67,1.643-13.132,1.61-19.78c1.27-7.831,0.131-15.848,1.818-23.613c0.241-8.565,1.249-17.096,1.106-25.661
		c2.355-16.669,0.438-33.667,2.059-50.413c0.361-29.571,0.34-59.142,0.329-88.713c2.114-13.011,0.022-26.34,1.84-39.395
		c-0.131-5.969,1.457-11.752,1.413-17.688c-0.153-5.914,2.431-11.489,2.125-17.403c2.53-19.309,6.637-38.409,11.949-57.16
		c11.993-42.374,32.419-82.875,62.482-115.338c7.415-7.206,14.326-14.972,22.419-21.455c18.29-15.519,38.891-28.333,60.894-37.895
		c21.423-9.211,44.028-16.122,67.247-18.608c4.151-0.142,8.357,0,12.398,1.084c12.661,1.522,24.905,5.268,37.106,8.827
		c1.336,0.142,2.683,0.219,4.052,0.241c-1.008,0.175-1.993,0.372-2.957,0.58c5.597,1.062,10.711,3.68,16.023,5.651
		c37.073,15.267,70.631,39.384,96.15,70.346c11.807,13.822,21.664,29.199,30.338,45.145c23.065,43.524,34.62,92.349,38.913,141.163
		c1.511,6.604,0.328,13.471,1.38,20.152c0.843,5.389,0.328,10.854,0.558,16.275c0.296,2.574,1.095,5.093,0.909,7.732
		c-0.131,35.814,0.066,71.627,0.274,107.43c-0.055,3.307,1.106,6.495,0.942,9.835c-0.142,6.21,0.175,12.431,0.307,18.652
		c1.676,11.511-0.142,23.263,1.906,34.74c1.708,9.441,0.208,19.133,2.07,28.552c2.114,23.46,4.688,46.886,9.189,70.028
		c4.359,21.839,9.912,44.039,21.806,63.14c6.418,10.196,15.421,19.046,26.691,23.679c8.499,4.118,18.049,4.731,27.271,5.881
		c7.261,0.591,14.556-2.048,20.119-6.67c8.389-6.966,14.796-15.968,20.437-25.201c17.808-30.513,28.903-64.333,38.793-98.077
		c2.661-10.492,6.188-20.798,8.061-31.477c0.274,1.029,0.537,2.092,0.821,3.165c-0.559-4.031,0.383-7.984,1.413-11.839
		c0.241,1.008,0.493,2.037,0.778,3.089c-0.131-2.147-0.285-4.282,0.044-6.385c3.045-11.708,5.421-23.58,7.973-35.398
		c2.366-11.095,4.534-22.31,5.202-33.645c0.274,1.457,0.559,2.924,0.898,4.403c-0.613-6.352,1.588-12.398,2.3-18.619
		c5.684-32.758,10.514-65.659,14.38-98.691c0.81-7.239,2.168-14.413,2.234-21.707c2.015-10.93,2.136-22.025,3.724-32.999
		c0.613-4.72-0.022-9.55,1.205-14.194c0.931-9.112,0.876-18.345,2.377-27.38c0.296-4.775,0.099-9.561,0.69-14.304
		c0.81-6.538-0.022-13.197,1.38-19.648c0.635-6.571,0.142-13.198,0.8-19.758c1.172-10.229-0.361-20.678,1.599-30.798
		c0.131-15.289,0.35-30.568,0.252-45.857c0.11-5.608-0.416-11.259,0.548-16.812c0.504-5.816-0.372-11.686,0.613-17.458
		c1.38-6.823,0.263-13.865,1.49-20.711c0.416-5.093,1.61-10.076,1.654-15.191c0.493-3.57,1.358-7.119,0.92-10.744
		c0.23,1.457,0.449,2.913,0.767,4.37c0.186-9.945,2.87-19.583,4.512-29.352c7.896-39.231,19.353-77.662,32.002-115.612
		c28.673-85.011,64.103-167.832,87.267-254.639c2.574-10.197,5.498-20.36,6.966-30.798c0.296,0.044,0.613,0.099,0.942,0.164
		c0.033-1.774,0.055-3.559,0.537-5.279c4.348-19.276,6.878-38.891,9.43-58.452c1.566-21.149,1.774-42.407,0.986-63.611
		c-1.292-20.754-4.633-41.367-9.901-61.486c-10.996-42.845-31.86-82.777-58.912-117.638c-25.891-33.032-56.502-62.439-91.068-86.293
		c-1.161-0.778-2.388,0.088-3.351,0.679c-17.962,11.292-35.934,22.54-53.896,33.831c-16.198,10.437-32.857,20.196-48.847,30.918
		c-0.033,32.342,0.099,64.695-0.066,97.037c-1.939,6.582-2.793,13.876-7.458,19.254c-31.477,45.211-62.756,90.564-94.167,135.819
		c-10.306,18.268-20.075,36.843-30.305,55.166c-6.889-8.762-14.15-17.206-21.149-25.869c-12.365-15.563-25.519-30.513-37.632-46.251
		c24.095-51.158,47.916-102.458,71.978-153.627c1.172-2.716-0.559-5.509-1.259-8.116c-10.909-35.288-21.762-70.587-32.638-105.886
		c-6.681-21.006-12.683-42.221-19.725-63.096c-11.095,3.143-21.631,8.094-32.265,12.507c-44.51,19.484-85.964,45.704-123.366,76.633
		c-8.773,0.274-17.589,0.23-26.351,0.022c-47.303-38.902-101.067-70.269-158.939-90.52c-1.665-0.635-3.472-0.416-5.18-0.526
		c0.986-0.208,1.982-0.405,2.99-0.613c-12.047-2.891-23.755-7.174-35.901-9.726c-22.682-5.104-45.791-8.619-69.087-8.357
		C362.284,57.264,350.039,56.65,338.025,58.655z"/>
	<path fill="#FFFFFF" stroke="#FFFFFF" stroke-width="0.1027" d="M338.025,58.655c12.015-2.004,24.259-1.391,36.383-1.555
		c23.295-0.263,46.405,3.253,69.087,8.357c12.146,2.552,23.854,6.834,35.901,9.726c-1.008,0.208-2.004,0.405-2.99,0.613
		c1.709,0.11,3.516-0.11,5.18,0.526c57.872,20.251,111.636,51.618,158.939,90.52c8.762,0.208,17.578,0.252,26.351-0.022
		c37.402-30.929,78.856-57.149,123.366-76.633c10.635-4.414,21.171-9.364,32.265-12.507c7.042,20.875,13.044,42.089,19.725,63.096
		c10.876,35.299,21.729,70.598,32.638,105.886c0.701,2.607,2.431,5.399,1.259,8.116c-24.062,51.169-47.883,102.469-71.978,153.627
		c12.113,15.738,25.267,30.688,37.632,46.251c6.999,8.663,14.26,17.107,21.149,25.869c10.229-18.323,19.999-36.898,30.305-55.166
		c31.411-45.255,62.691-90.608,94.167-135.819c4.666-5.378,5.52-12.672,7.458-19.254c0.164-32.342,0.033-64.695,0.066-97.037
		c15.99-10.722,32.649-20.481,48.847-30.918c17.962-11.292,35.934-22.54,53.896-33.831c0.964-0.591,2.19-1.457,3.351-0.679
		c34.565,23.854,65.177,53.261,91.068,86.293c27.052,34.861,47.916,74.793,58.912,117.638c5.268,20.119,8.608,40.731,9.901,61.486
		c0.788,21.203,0.58,42.462-0.986,63.611c-2.552,19.561-5.082,39.176-9.43,58.452c-0.482,1.72-0.504,3.505-0.537,5.279
		c-0.329-0.066-0.646-0.121-0.942-0.164c-1.468,10.437-4.392,20.601-6.966,30.798c-23.164,86.807-58.594,169.628-87.267,254.639
		c-12.65,37.949-24.106,76.381-32.002,115.612c-1.643,9.769-4.326,19.407-4.512,29.352c-0.318-1.457-0.537-2.913-0.767-4.37
		c0.438,3.625-0.427,7.174-0.92,10.744c-0.044,5.115-1.238,10.098-1.654,15.191c-1.227,6.845-0.109,13.887-1.49,20.711
		c-0.986,5.772-0.109,11.642-0.613,17.458c-0.964,5.553-0.438,11.204-0.548,16.812c0.099,15.289-0.12,30.568-0.252,45.857
		c-1.96,10.12-0.427,20.568-1.599,30.798c-0.657,6.56-0.164,13.187-0.8,19.758c-1.402,6.451-0.569,13.11-1.38,19.648
		c-0.592,4.742-0.394,9.528-0.69,14.304c-1.5,9.036-1.446,18.268-2.377,27.38c-1.227,4.644-0.591,9.474-1.205,14.194
		c-1.588,10.974-1.708,22.069-3.724,32.999c-0.066,7.294-1.424,14.468-2.234,21.707c-3.866,33.032-8.696,65.932-14.38,98.691
		c-0.712,6.221-2.913,12.266-2.3,18.619c-0.339-1.479-0.624-2.946-0.898-4.403c-0.668,11.336-2.837,22.551-5.202,33.645
		c-2.552,11.818-4.928,23.69-7.973,35.398c-0.328,2.103-0.175,4.239-0.044,6.385c-0.285-1.052-0.537-2.081-0.778-3.089
		c-1.03,3.855-1.971,7.809-1.413,11.839c-0.285-1.073-0.548-2.136-0.821-3.165c-1.873,10.678-5.4,20.984-8.061,31.477
		c-9.89,33.744-20.984,67.564-38.793,98.077c-5.64,9.233-12.047,18.235-20.437,25.201c-5.564,4.622-12.858,7.261-20.119,6.67
		c-9.222-1.15-18.772-1.763-27.271-5.881c-11.27-4.633-20.273-13.482-26.691-23.679c-11.894-19.101-17.447-41.301-21.806-63.14
		c-4.501-23.142-7.075-46.569-9.189-70.028c-1.862-9.419-0.362-19.112-2.07-28.552c-2.048-11.478-0.23-23.23-1.906-34.74
		c-0.131-6.221-0.449-12.442-0.307-18.652c0.164-3.341-0.997-6.528-0.942-9.835c-0.208-35.803-0.405-71.617-0.274-107.43
		c0.186-2.64-0.613-5.159-0.909-7.732c-0.23-5.421,0.285-10.886-0.558-16.275c-1.052-6.681,0.131-13.548-1.38-20.152
		c-4.293-48.814-15.848-97.639-38.913-141.163c-8.674-15.946-18.531-31.323-30.338-45.145
		c-25.519-30.962-59.076-55.079-96.15-70.346c-5.312-1.971-10.427-4.589-16.023-5.651c0.964-0.208,1.95-0.405,2.957-0.58
		c-1.369-0.022-2.716-0.099-4.052-0.241c-12.201-3.559-24.445-7.305-37.106-8.827c-4.041-1.084-8.247-1.227-12.398-1.084
		c-23.219,2.486-45.824,9.397-67.247,18.608c-22.003,9.561-42.604,22.375-60.894,37.895c-8.094,6.484-15.005,14.249-22.419,21.455
		c-30.064,32.462-50.49,72.964-62.482,115.338c-5.312,18.75-9.419,37.851-11.949,57.16c0.307,5.914-2.278,11.489-2.125,17.403
		c0.044,5.936-1.544,11.719-1.413,17.688c-1.818,13.055,0.274,26.384-1.84,39.395c0.011,29.571,0.033,59.142-0.329,88.713
		c-1.621,16.746,0.296,33.744-2.059,50.413c0.142,8.565-0.865,17.096-1.106,25.661c-1.687,7.765-0.548,15.782-1.818,23.613
		c0.033,6.648-1.741,13.11-1.61,19.78c-2.103,16.352-3.702,32.725-6.878,48.935c-4.03,21.51-9.211,43.239-19.758,62.603
		c-6.024,11.04-14.501,21.182-25.935,26.855c-12.354,6.67-26.888,7.831-40.633,6.538c-7.294-2.322-13.384-7.426-18.257-13.198
		c-14.085-16.702-23.252-36.799-31.564-56.82c-10.624-26.482-18.695-53.896-25.924-81.463c-1.194-3.548-1.982-7.218-1.752-10.963
		c-0.252,0.997-0.493,2.015-0.734,3.045c-1.095-10.35-5.301-20.119-6.1-30.524c-0.296,1.446-0.548,2.913-0.81,4.392
		c0.46-9.737-3.746-18.926-4.589-28.531c-2.19-9.211-3.757-18.553-5.564-27.84c-0.997-7.239-3.067-14.304-3.264-21.642
		c-0.318,1.796-0.438,3.636-0.81,5.443c0.153-3.505,0.175-7.021-0.438-10.47c-3.242-17.732-5.597-35.584-8.148-53.414
		c-0.329-6.057-2.41-11.883-2.289-17.973c-0.504-5.126-1.588-10.186-1.993-15.322c-0.11-7.71-2.267-15.202-2.399-22.923
		c-1.358-7.152-1.413-14.457-2.234-21.685c-1.84-10.328-1.249-20.941-3.143-31.258c-0.109-7.951-1.216-15.815-1.402-23.744
		c-1.325-5.783-0.8-11.741-1.019-17.611c0.142-4.425-1.194-8.718-1.019-13.121c-0.329-7.305,0.219-14.621-0.394-21.904
		c-1.676-11.609,0.34-23.482-1.687-35.036c-0.383-8.389,0.613-16.844-0.778-25.168c-0.789-19.703,0.975-39.548-1.413-59.164
		c-0.986-18.882-4.392-37.511-7.656-56.108c-10.405-52.757-27.03-104.024-45.079-154.591
		c-26.964-75.789-57.51-150.527-77.476-228.595c-0.394-2.147-0.197-4.326-0.142-6.484c-0.263,1.435-0.504,2.88-0.756,4.326
		c-2.771-15.333-6.812-30.436-9.32-45.813c-1.752-12.08-4.271-24.095-4.469-36.329c-0.876-4.72-1.27-9.507-1.774-14.271
		c-0.394-18.608-0.46-37.249,0.12-55.845c0.942-5.432,2.19-10.821,1.96-16.374c2.223-15.147,5.027-30.272,9.298-45.014
		c12.475-44.784,35.562-86.238,65.242-121.887c22.562-26.997,48.146-51.64,76.885-72.022c32.879-23.339,70.182-40.83,109.708-49.252
		c1.807-0.372,3.658-0.58,5.498-0.832c-1.818-0.263-3.636-0.504-5.454-0.778c4.392,0.34,8.871,0.416,13.132-0.876
		C327.872,59.137,333.063,59.816,338.025,58.655 M262.17,146.82c-6.254,18.126-11.478,36.624-17.458,54.86
		c-6.035,19.769-12.65,39.373-18.334,59.241c-3.231,0.252-6.166-1.27-9.222-2.015c-30.568-8.422-61.015-17.261-91.626-25.442
		c-4.994,13.975-8.433,28.454-12.683,42.659c-1.281,4.403-3.264,8.729-3.001,13.416c-0.307-0.504-0.602-1.008-0.898-1.5
		c-1.38,8.948-5.126,17.305-7.042,26.132c1.971,1.566,4.479,1.982,6.823,2.738c26.395,9.079,52.757,18.214,79.174,27.227
		c3.154,0.887,6.276,1.939,9.079,3.702c-7.448,11.248-14.939,22.463-22.441,33.667c-1.172,2.377-4.063,0.876-6.024,0.789
		c-5.838-1.161-13.077-1.829-17.556,2.924c-6.966,7.349-11.916,16.319-16.319,25.365c-1.73,3.724-3.034,7.776-2.848,11.927
		c0.044,9.517,0.033,19.035,0,28.552c-0.548,3.724,3.549,6.057,3.362,9.715c0.832,7.338-3.505,13.778-7.437,19.55
		c-1.588,2.541-4.403,4.129-5.794,6.758c-0.044,3.318,0.493,6.615,1.183,9.868c10.284-3.384,15.848-13.734,20.119-22.945
		c2.618-4.731,1.971-10.218,1.971-15.399c0.296-3.91-2.968-6.977-2.629-10.865c-0.022-8.05,0.022-16.1-0.011-24.15
		c0.033-2.42-0.044-4.939,1.008-7.174c3.614-8.806,8.882-16.855,14.95-24.161c1.884-0.055,3.768-0.142,5.662-0.066
		c4.797-0.088,8.565,3.428,13.022,4.666c0.241-0.427,0.723-1.292,0.964-1.73c3.11-2.716,4.994-6.451,7.437-9.715
		c0.197,0.832,0.58,2.497,0.778,3.329c-2.015,4.228-2.979,8.817-4.447,13.241c-3.965,12.398-7.688,24.862-11.708,37.238
		c-0.58,1.971-0.416,4.03-0.197,6.046c5.137,1.27,10.098,3.121,15.18,4.611c21.16,7.009,42.462,13.614,63.622,20.645
		c4.764-10.35,7.82-21.412,12.562-31.772c2.388,1.511,3.559,4.162,5.082,6.44c3.976,6.363,8.17,12.606,12.146,18.98
		c0.559,8.685,0.361,17.469,0.099,26.176c-3.045,2.672-7.754,5.126-6.878,9.934c-0.504,3.132,1.807,5.575,4.545,6.626
		c10.678,2.475,21.674,2.585,32.572,2.585c4.972,13.701,10.777,27.096,16.122,40.655c1.993,0.033,3.811-0.821,5.509-1.807
		c1.249-0.208,2.508-0.416,3.768-0.635c0.142-1.654,0.361-3.384-0.34-4.95c-5.454-13.526-11.193-26.942-16.352-40.589
		c-0.69-1.862-1.533-3.669-2.618-5.323c-8.751,1.391-18.049,3.406-26.68,0.515c3.33-5.432,2.147-11.872,2.289-17.896
		c-0.099-5.684,0.23-11.368-0.131-17.042c-0.493-0.482-1.479-1.468-1.961-1.96c-5.597-10.01-12.88-19.221-18.323-29.407
		c-1.161-1.489-2.388-2.946-3.603-4.381c1.457-6.078,5.235-11.456,5.728-17.797c4.458-10.186,7.502-20.974,12.19-31.05
		c3.176,0.153,5.991,1.73,8.959,2.716c33.919,11.566,67.772,23.35,101.67,34.916c2.552-6.002,3.943-12.409,6.089-18.553
		c7.294-23.339,14.577-46.678,21.872-70.018c1.019-3.242,2.322-6.429,2.486-9.857c-15.618-4.304-31.269-8.543-46.832-13.088
		c-1.687-0.34-3.384-0.318-5.071-0.34c0.526-0.307,1.062-0.602,1.61-0.909c-8.937-1.511-17.436-4.819-26.231-6.944
		c-7.502-2.563-15.508-3.538-22.726-6.9c8.378-4.315,16.658-8.784,24.971-13.23c1.391-0.635,2.782-1.566,4.403-1.468
		c9.704-0.153,19.44,0.219,29.133-0.142c5.159-3.439,9.101-8.335,13.69-12.453c2.738-3.067,6.571-5.049,8.882-8.499
		c5.224-9.298,10.043-18.827,15.3-28.103c5.388-0.12,10.81-0.285,16.187,0.066c4.414,4.589,5.892,11.193,9.266,16.527
		c3.439,0.022,6.265-2.136,9.2-3.658c-0.153-3.275-2.322-5.914-3.702-8.751c-2.848-4.644-4.644-9.857-7.787-14.315
		c-9.638,0.11-19.276-0.011-28.914,0.044c-1.588,1.194-2.388,3.078-3.351,4.742c-4.03,7.721-8.379,15.267-12.354,23.022
		c-2.333,4.72-6.089,8.981-10.941,11.171c-0.12-4.326,0.515-8.817-1.019-12.967c-1.238-4.063-4.589-7.141-5.87-11.095
		c0.296-4.896,3.264-9.2,4.523-13.898c1.599-6.659,7.207-11.084,9.857-17.228c2.661-4.447,2.946-9.835,2.158-14.84
		c-4.414-6.177-8.948-12.277-13.449-18.4c-3.045,1.741-6.089,3.559-8.521,6.111c3.91,5.706,8.335,11.04,12.223,16.757
		c-0.668,8.094-8.378,13.066-10.744,20.535c-2.453,7.404-5.794,14.545-7.951,22.025c2.552,5.914,8.576,10.635,8.061,17.567
		c-0.23,5.246,0.668,10.755-1.106,15.804c-9.397,0.164-18.849-0.405-28.202,0.252c-9.638,4.589-18.608,10.547-28.476,14.632
		c11.85-31.247,23.657-62.526,35.617-93.729c0.57-1.752,1.993-3.866,0.778-5.64c-31.006-10.602-61.979-21.455-92.919-32.265
		C264.272,147.16,263.221,146.962,262.17,146.82 M1025.463,432.279c0.756,6.604,3.012,12.902,4.479,19.364
		c1.018,5.082,3.767,10.394,1.632,15.552c-6.199,14.457-11.96,29.1-18.071,43.59c-0.559,1.424-1.654,2.957-0.668,4.479
		c3.735,10.043,7.71,19.999,11.423,30.042c0.712,6.528-0.285,13.154,0.23,19.725c0.668-6.287-0.175-12.639,0.778-18.893
		c0.657,7.743-0.909,15.705,1.358,23.284c-4.852-0.898-8.63-4.271-12.869-6.539c-9.255-4.644-15.421-13.263-22.835-20.185
		c-0.219-0.537-0.635-1.621-0.854-2.158c-7.097-0.756-14.238,0.142-21.335-0.438c-0.23-4.107-0.624-8.28,0.109-12.332
		c1.468-2.683,3.538-4.994,4.808-7.776c2.607-2.475,1.796-6.823,1.051-9.967c-3.395-1.544-7.393-0.602-11.018-0.81
		c-6.944-0.307-13.493,2.158-20.294,2.979c-0.164,3.297,0.23,6.593,1.194,9.758c5.367,0.153,10.514-1.292,15.706-2.453
		c-1.161,2.585-2.913,5.115-2.738,8.094c0.033,7.853-0.12,15.716,0.109,23.58c8.762,0.274,17.545-0.088,26.307,0.153
		c7.064,4.698,11.806,12.245,18.728,17.195c9.386,5.597,18.86,11.062,28.257,16.669c3.79,2.037,4.71,6.56,6.298,10.208
		c3.373,8.127,6.67,16.385,11.336,23.876c7.447,9.616,15.497,18.728,23.547,27.841c2.245-0.307,2.486-2.837,3.209-4.556
		c3.877-10.941,7.546-21.97,11.752-32.78c0.58,0.164,1.73,0.493,2.311,0.646c5.18,5.64,9.758,11.806,14.753,17.611
		c-0.164,2.924-2.694,5.312-3.811,8.006c-6.582,12.037-12.935,24.204-19.55,36.219c-3.559,8.663-12.234,13.274-18.619,19.604
		c-1.084,1.347-3.527,2.377-3.001,4.436c2.366,5.859,8.148,10.142,9.507,16.428c-3.855-0.493-6.944-3.023-10.229-4.841
		c-9.912-6.385-19.769-12.946-28.717-20.645c-2.53-2.169-5.498-4.03-7.305-6.878c-2.322-5.772-4.129-12.102-8.532-16.702
		c-2.3-2.464-5.881-2.486-8.97-1.982c-3.965,2.201-6.736,5.914-10.142,8.817c-3.713,3.143-7.502,6.188-11.084,9.485
		c1.708,2.946,4.03,5.454,6.363,7.918c6.473-4.085,11.27-10.197,17.502-14.577c4.655,4.447,3.384,12.354,8.685,16.374
		c12.486,10.777,25.771,20.7,39.976,29.122c3.877,2.169,7.918,4.688,12.551,4.523c2.946-0.142,6.637,0.756,8.959-1.588
		c3.746-2.913,2.738-8.258,2.289-12.354c-2.333-4.184-5.52-7.82-7.743-12.069c3.089-3.779,7.239-6.462,10.777-9.791
		c4.37-3.68,6.078-9.364,8.959-14.117c6.506-12.015,13.077-23.996,19.484-36.066c4.622,4.414,8.444,9.627,12.464,14.599
		c1.26,5.936,1.106,12.08,0.427,18.093c-0.734,23.065-0.263,46.164-0.471,69.251c0.449,0.307,1.325,0.909,1.774,1.205
		c5.104,0.164,10.24,0.121,15.366,0.022c2.256-1.062,2.475-3.811,3.505-5.816c0.46-1.479,1.227-3.746-0.197-4.863
		c-3.483-0.307-7.053,0.482-10.438-0.526c0.416-17.206-0.854-34.51,0.953-51.629c0.011-8.061,0.252-16.122,0.055-24.183
		c-0.077-3.012-0.953-6.1-2.88-8.444c-5.016-5.827-9.977-11.686-14.764-17.699c2.727-5.093,5.848-9.956,8.762-14.939
		c2.355-4.381,3.976-9.134,6.582-13.384c3.023-5.345,7.086-10.01,10.087-15.366c-1.971-7.119-3.373-14.446-4.523-21.751
		c-0.307,0.515-0.602,1.03-0.876,1.555c0.635-4.917-2.924-9.036-2.596-13.887c0.318-6.604,0.175-13.219,0.351-19.823
		c1.73-11.555,3.8-23.076,6.473-34.456c1.04-1.533,2.65-2.563,4.118-3.68c5.772-4.008,11.325-8.335,17.272-12.113
		c-1.906-3.045-3.91-6.035-6.407-8.608c-5.881,4.271-11.664,8.696-17.71,12.737c-3.373,2.114-6.823,4.611-7.601,8.795
		c-0.252-1.051-0.493-2.092-0.701-3.121c0.69,4.096,0.285,8.258-0.964,12.223c-1.993,11.182-5.082,22.321-4.677,33.777
		c-0.044,6.527-1.851,13.121-0.46,19.615c1.61,4.337,3.198,8.718,4.195,13.252c0.81,4.742,2.749,9.353,2.256,14.26
		c-1.676,3.198-3.943,6.035-5.881,9.079c-5.871,8.565-8.313,19.21-15.519,26.888c-7.765-10.361-16.461-19.988-24.599-30.042
		c-0.307,0-0.909,0-1.216,0c-3.822,9.134-6.681,18.663-10.164,27.928c-1.566,3.625-1.884,7.995-4.688,10.93
		c-4.874-5.323-9.561-10.919-13.449-17.009c-7.535-14.95-13.154-30.765-19.276-46.317c-2.891-7.009-0.493-14.709-1.917-21.948
		c-3.143-8.477-6.484-16.899-9.715-25.343c-1.019-3.012,0.219-6.002,1.533-8.663c5.465-12.924,10.613-25.979,16.1-38.891
		c1.851-3.811,1.062-8.159,0.033-12.08c-2.453-8.817-4.25-17.819-6.889-26.581C1031.892,430.538,1028.595,431.129,1025.463,432.279
		 M776.88,471.291c-2.815,2.727-4.359,6.418-6.834,9.397c-3.538,1.698-7.546,1.84-11.171,3.242
		c-13.855,4.775-25.913,13.69-36.131,24.029c-16.56,18.323-28.213,40.83-34.971,64.498c-0.263-1.03-0.515-2.059-0.745-3.078
		c1.018,5.936-2.026,11.467-3.023,17.206c-2.048,11.314-4.688,22.616-4.786,34.16c-1.062,11.642-1.062,23.438,0.011,35.08
		c0.208,12.179,3.22,24.073,4.885,36.099c0.263-1.073,0.526-2.136,0.81-3.187c-0.548,7.535,2.902,14.512,4.841,21.62
		c7.721,22.857,19.396,44.981,37.095,61.694c14.709,14.577,34.948,25.004,56.086,23.766c23,1.194,44.422-11.412,59.668-27.753
		c16.275-17.129,27.052-38.782,34.248-61.113c1.325-3.395,2.037-6.988,2.158-10.613c0.263,1.435,0.537,2.88,0.821,4.337
		c-0.033-9.287,4.249-18.016,4.567-27.315c0.778-6.725,1.96-13.395,2.289-20.163c2.596-3.8,5.805-7.13,8.74-10.667
		c-2.957-3.822-6.966-6.626-10.514-9.835c-6.089-5.608-12.453-10.908-18.257-16.801c-12.518-12.694-25.617-24.829-37.117-38.475
		c-14.435-16.691-28.114-34.565-36.821-54.991c-3.275-8.619-6.779-18.181-3.713-27.37c1.084-4.545,4.479-7.897,7.404-11.346
		c-4.173-5.586-8.806-10.81-13.406-16.023C780.221,466.997,778.622,469.648,776.88,471.291 M527.914,536.654
		c-7.809,9.32-17.414,16.834-25.946,25.431c-32.145,28.257-66.491,54.038-102.524,77.136c-1.884,0.767-2.366,3.209-1.161,4.775
		c3.527,5.586,6.922,11.259,10.624,16.735c1.687,2.355,0.8,5.476,1.172,8.192c1.687,12.584,4.249,25.081,8.05,37.238
		c7.886,24.829,20.229,48.935,39.417,66.94c14.764,13.723,34.259,23.876,54.882,22.715c21.455,1.249,41.575-9.769,56.678-24.204
		c17.381-17.228,29.199-39.351,36.821-62.439c1.522-5.662,4.282-11.215,3.373-17.239c0.252,1.424,0.482,2.869,0.745,4.304
		c2.53-14.117,5.881-28.191,5.947-42.615c-0.307-7.36,2.497-14.742,0.197-22.003c0.318-17.129-2.399-34.105-6.319-50.731
		c-5.848-23.131-15.519-45.616-30.381-64.432c-0.887-1.501-3.045-3.231-1.665-5.082c6.396-10.251,12.376-20.875,16.297-32.364
		c-5.246-2.541-10.93-3.943-16.341-6.057c-1.632-0.745-3.439-0.767-5.158-0.887C563.071,496.809,545.909,517.575,527.914,536.654
		 M574.505,822.397c-4.863,1.26-9.517,3.362-14.555,3.855c0.438,0.252,0.887,0.515,1.336,0.799
		c-2.234,0.219-4.447,0.668-6.538,1.479c-54.203,18.914-103.269,51.245-144.164,91.309c-0.865,1.062-1.993,1.665-3.362,1.829
		c-4.129-8.444-9.255-16.308-14.424-24.139c-0.482-0.055-1.435-0.175-1.917-0.241c-5.564,4.698-11.828,8.543-17.162,13.493
		c6.9,8.488,11.872,18.334,16.341,28.268c3.384,8.455,6.79,18.148,3.089,27.063c-1.665,2.399-4.195,3.965-6.221,6.035
		c3.855,6.407,6.779,13.34,10.876,19.594c7.842-4.151,14.26-11.16,17.239-19.561c2.453-5.848,1.643-12.299,1.73-18.465
		c0.044-4.896-0.832-9.748-2.574-14.315c43.437-44.137,96.96-79.929,157.164-96.259c3.592-1.194,7.349-1.862,11.149-1.895
		c-1.468-0.307-2.935-0.591-4.381-0.865c4.797,0.296,9.496-0.778,14.107-1.971c7.152-0.799,14.15-2.793,21.39-2.596
		c12.902-1.72,26.001-1.238,38.99-0.832c5.454,1.03,11.018,0.909,16.549,1.227c-1.489,0.351-2.968,0.657-4.436,0.964
		c4.786-0.646,9.539,0.351,14.282,0.953c33.043,6.199,64.914,18.52,93.784,35.759c38.519,22.518,72.153,52.417,102.436,84.989
		c1.347,1.271-0.066,3.089-0.745,4.337c-7.568,11.894-12.573,25.223-16.505,38.694c7.064,2.223,14.238,4.304,21.587,5.41
		c3.943-9.441,6.801-19.396,11.949-28.322c4.14-7.174,8.981-14.336,16.056-18.914c3.866-2.563,8.707-1.051,13.033-1.139
		c1.632-3.548,3.264-7.097,4.709-10.711c2.136-2.76,4.173-5.903,4.271-9.507c-4.184-2.486-9.079-2.924-13.745-3.8
		c-3.844-0.657-7.623,0.679-11.346,1.391c-5.629,1.161-10.251,4.698-15.125,7.524c-1.227-0.712-2.432-1.391-3.636-2.037
		c-4.567-6.67-10.908-11.807-15.848-18.148c-35.365-36.712-76.195-69.065-122.961-89.994c-23.985-10.7-49.57-17.863-75.68-20.59
		c-15.344-0.515-30.699-0.493-46.043,0.066C608.085,814.884,591.174,818.126,574.505,822.397z"/>
	<path stroke="#000000" stroke-width="0.1027" d="M262.17,146.82c1.051,0.142,2.103,0.34,3.154,0.602
		c30.94,10.81,61.913,21.663,92.919,32.265c1.216,1.774-0.208,3.888-0.778,5.64c-11.96,31.203-23.766,62.482-35.617,93.729
		c9.868-4.085,18.838-10.043,28.476-14.632c9.353-0.657,18.805-0.088,28.202-0.252c1.774-5.049,0.876-10.558,1.106-15.804
		c0.515-6.933-5.509-11.653-8.061-17.567c2.158-7.48,5.498-14.621,7.951-22.025c2.366-7.469,10.076-12.442,10.744-20.535
		c-3.888-5.717-8.313-11.051-12.223-16.757c2.431-2.552,5.476-4.37,8.521-6.111c4.501,6.122,9.036,12.223,13.449,18.4
		c0.789,5.005,0.504,10.394-2.158,14.84c-2.65,6.144-8.258,10.569-9.857,17.228c-1.26,4.699-4.228,9.003-4.523,13.898
		c1.281,3.954,4.633,7.031,5.87,11.095c1.533,4.151,0.898,8.641,1.019,12.967c4.852-2.19,8.608-6.451,10.941-11.171
		c3.976-7.754,8.324-15.3,12.354-23.022c0.964-1.665,1.763-3.549,3.351-4.742c9.638-0.055,19.276,0.066,28.914-0.044
		c3.143,4.458,4.939,9.671,7.787,14.315c1.38,2.837,3.549,5.476,3.702,8.751c-2.935,1.522-5.761,3.68-9.2,3.658
		c-3.373-5.334-4.852-11.938-9.266-16.527c-5.378-0.35-10.799-0.186-16.187-0.066c-5.257,9.277-10.076,18.805-15.3,28.103
		c-2.311,3.45-6.144,5.432-8.882,8.499c-4.589,4.118-8.532,9.014-13.69,12.453c-9.693,0.361-19.429-0.011-29.133,0.142
		c-1.621-0.099-3.012,0.832-4.403,1.468c-8.313,4.447-16.593,8.915-24.971,13.23c7.217,3.362,15.224,4.337,22.726,6.9
		c8.795,2.125,17.294,5.432,26.231,6.944c-0.548,0.307-1.084,0.602-1.61,0.909c1.687,0.022,3.384,0,5.071,0.34
		c15.563,4.545,31.214,8.784,46.832,13.088c-0.164,3.428-1.468,6.615-2.486,9.857c-7.294,23.339-14.577,46.678-21.872,70.018
		c-2.147,6.144-3.538,12.551-6.089,18.553c-33.897-11.566-67.75-23.35-101.67-34.916c-2.968-0.986-5.783-2.563-8.959-2.716
		c-4.688,10.076-7.732,20.864-12.19,31.05c-3.253,6.911-6.111,14.03-8.368,21.324c2.081,0.252,4.162,0.537,6.243,0.854
		c5.443,10.186,12.726,19.396,18.323,29.407c0.099,8.159-0.109,16.319,0.077,24.478c0.208,4.797-0.843,9.496-1.862,14.15
		c9.178,0.69,18.487,0.821,27.589-0.821c3.089,5.586,4.819,11.763,7.316,17.611c3.789,10.032,8.729,19.637,11.894,29.9
		c-0.997,0.865-1.982,1.73-2.99,2.563c-1.698,0.986-3.516,1.84-5.509,1.807c-5.345-13.559-11.149-26.953-16.122-40.655
		c-10.897,0-21.893-0.109-32.572-2.585c-2.738-1.051-5.049-3.494-4.545-6.626c-0.876-4.808,3.833-7.261,6.878-9.934
		c0.263-8.707,0.46-17.491-0.099-26.176c-3.976-6.374-8.17-12.617-12.146-18.98c-1.522-2.278-2.694-4.928-5.082-6.44
		c-4.742,10.361-7.798,21.423-12.562,31.772c-21.16-7.031-42.462-13.636-63.622-20.645c-5.082-1.49-10.043-3.34-15.18-4.611
		c-0.219-2.015-0.383-4.074,0.197-6.046c4.019-12.376,7.743-24.84,11.708-37.238c1.468-4.425,2.431-9.014,4.447-13.241
		c1.522-3.319,2.41-6.867,3.373-10.361c-4.907,4.775-8.324,10.788-11.587,16.746c-0.241,0.438-0.723,1.303-0.964,1.73
		c-4.458-1.238-8.225-4.753-13.022-4.666c-1.895-0.077-3.779,0.011-5.662,0.066c-6.068,7.305-11.336,15.355-14.95,24.161
		c-1.051,2.234-0.975,4.753-1.008,7.174c0.033,8.05-0.011,16.1,0.011,24.15c-0.34,3.888,2.924,6.955,2.629,10.865
		c0,5.18,0.646,10.667-1.971,15.399c-4.271,9.211-9.835,19.561-20.119,22.945c-0.69-3.253-1.227-6.549-1.183-9.868
		c1.391-2.629,4.206-4.217,5.794-6.758c3.932-5.772,8.269-12.212,7.437-19.55c0.186-3.658-3.91-5.991-3.362-9.715
		c0.033-9.518,0.044-19.035,0-28.552c-0.186-4.151,1.117-8.203,2.848-11.927c4.403-9.047,9.353-18.016,16.319-25.365
		c4.479-4.753,11.719-4.085,17.556-2.924c1.96,0.088,4.852,1.588,6.024-0.789c7.502-11.204,14.994-22.419,22.441-33.667
		c-2.804-1.763-5.925-2.815-9.079-3.702c-26.417-9.014-52.779-18.148-79.174-27.227c-2.344-0.756-4.852-1.172-6.823-2.738
		c1.917-8.827,5.662-17.184,7.042-26.132c0.296,0.493,0.591,0.997,0.898,1.5c-0.263-4.688,1.72-9.014,3.001-13.416
		c4.249-14.205,7.688-28.684,12.683-42.659c30.611,8.181,61.059,17.02,91.626,25.442c3.056,0.745,5.991,2.267,9.222,2.015
		c5.684-19.867,12.299-39.472,18.334-59.241C250.692,183.444,255.916,164.946,262.17,146.82 M267.032,165.264
		c-27.556,88.034-55.155,176.046-82.777,264.047c-0.832,2.815-1.949,5.575-2.169,8.543c17.907,6.188,36.099,11.533,54.06,17.589
		c2.311,0.778,4.655,1.621,7.13,1.632c1.38-4.458,3.286-8.729,4.786-13.143c31.783-83.993,63.808-167.909,95.646-251.879
		c0.854-1.939,0.909-4.063,0.69-6.122c-25.168-8.532-50.161-17.578-75.362-26.001C268.336,161.693,267.657,163.467,267.032,165.264
		 M114.807,307.5c1.632,0.964,3.351,1.785,5.169,2.366c18.947,6.188,37.621,13.165,56.59,19.298
		c8.663,2.738,16.987,6.56,25.858,8.63c0.285-1.873,0.482-3.746,0.624-5.618c0.307,0.318,0.635,0.646,0.964,0.975
		c0.646-4.096,2.059-8.006,3.275-11.949c5.137-16.363,10.087-32.78,15.454-49.066c-2.826-2.004-6.221-2.76-9.517-3.549
		c-24.5-6.593-48.847-13.745-73.336-20.371c-2.497-0.723-4.972-1.588-7.59-1.698C126.274,266.78,120.218,287.063,114.807,307.5
		 M288.488,366.719c1.062,1.347,2.639,2.07,4.249,2.607c13.427,4.633,26.964,8.948,40.348,13.734
		c18.378,6.703,37.117,12.387,55.429,19.276c7.743-23.011,14.358-46.383,21.926-69.448c0.92-2.629,1.676-5.323,2.125-8.072
		c-10.613-4.304-22.036-6.265-32.955-9.715c-19.648-5.717-39.461-10.821-59.087-16.582c-2.015-0.701-4.14-0.657-6.199-0.329
		C306.143,321.19,297.096,343.873,288.488,366.719z"/>
	<path fill="#FFDC48" stroke="#FFDC48" stroke-width="0.1027" d="M267.032,165.264c0.624-1.796,1.303-3.57,2.004-5.334
		c25.201,8.422,50.194,17.469,75.362,26.001c0.219,2.059,0.164,4.184-0.69,6.122c-31.838,83.971-63.862,167.887-95.646,251.879
		c-1.5,4.414-3.406,8.685-4.786,13.143c-2.475-0.011-4.819-0.854-7.13-1.632c-17.962-6.057-36.153-11.401-54.06-17.589
		c0.219-2.968,1.336-5.728,2.169-8.543C211.877,341.31,239.477,253.298,267.032,165.264z"/>
	<path fill="#FFDC48" stroke="#FFDC48" stroke-width="0.1027" d="M114.807,307.5c5.41-20.437,11.467-40.72,17.491-60.982
		c2.618,0.11,5.093,0.975,7.59,1.698c24.489,6.626,48.836,13.778,73.336,20.371c3.297,0.789,6.692,1.544,9.517,3.549
		c-5.367,16.286-10.317,32.703-15.454,49.066c-1.216,3.943-2.629,7.853-3.275,11.949c-0.329-0.329-0.657-0.657-0.964-0.975
		c-0.142,1.873-0.34,3.746-0.624,5.618c-8.871-2.07-17.195-5.892-25.858-8.63c-18.969-6.133-37.643-13.11-56.59-19.298
		C118.159,309.285,116.439,308.464,114.807,307.5z"/>
	<path fill="#FFDC48" stroke="#FFDC48" stroke-width="0.1027" d="M288.488,366.719c8.608-22.846,17.655-45.528,25.836-68.528
		c2.059-0.329,4.184-0.372,6.199,0.329c19.626,5.761,39.439,10.865,59.087,16.582c10.919,3.45,22.343,5.41,32.955,9.715
		c-0.449,2.749-1.205,5.443-2.125,8.072c-7.568,23.065-14.183,46.437-21.926,69.448c-18.312-6.889-37.051-12.573-55.429-19.276
		c-13.384-4.786-26.921-9.101-40.348-13.734C291.127,368.789,289.55,368.066,288.488,366.719z"/>
	<path fill="#9F9F9F" stroke="#9F9F9F" stroke-width="0.1027" d="M178.166,395.129c3.264-5.958,6.681-11.971,11.587-16.746
		c-0.964,3.494-1.851,7.042-3.373,10.361c-0.197-0.832-0.58-2.497-0.778-3.329C183.16,388.678,181.276,392.413,178.166,395.129z"/>
	<path fill="#828282" stroke="#828282" stroke-width="0.1027" d="M263.999,430.198c2.256-7.294,5.115-14.413,8.368-21.324
		c-0.493,6.341-4.271,11.719-5.728,17.797c1.216,1.435,2.442,2.891,3.603,4.381C268.16,430.735,266.079,430.45,263.999,430.198z"/>
	<path stroke="#000000" stroke-width="0.1027" d="M1025.463,432.279c3.132-1.15,6.429-1.741,9.769-1.873
		c2.64,8.762,4.436,17.764,6.889,26.581c1.029,3.921,1.818,8.269-0.033,12.08c-5.487,12.913-10.635,25.968-16.1,38.891
		c-1.314,2.661-2.552,5.651-1.533,8.663c3.231,8.444,6.571,16.866,9.715,25.343c1.424,7.239-0.975,14.939,1.917,21.948
		c6.122,15.552,11.741,31.367,19.276,46.317c3.888,6.089,8.576,11.686,13.449,17.009c2.804-2.935,3.121-7.305,4.688-10.93
		c3.483-9.266,6.341-18.794,10.164-27.928c0.307,0,0.909,0,1.216,0c8.137,10.054,16.833,19.681,24.599,30.042
		c7.207-7.678,9.649-18.323,15.519-26.888c1.938-3.045,4.206-5.881,5.881-9.079c0.493-4.907-1.446-9.518-2.256-14.26
		c-0.997-4.534-2.585-8.915-4.195-13.252c-1.391-6.495,0.416-13.088,0.46-19.615c-0.405-11.456,2.683-22.594,4.677-33.777
		c1.249-3.965,1.654-8.127,0.964-12.223c0.208,1.03,0.449,2.07,0.701,3.121c0.778-4.184,4.228-6.681,7.601-8.795
		c6.046-4.041,11.828-8.466,17.71-12.737c2.497,2.574,4.501,5.564,6.407,8.608c-5.947,3.779-11.5,8.105-17.272,12.113
		c-1.468,1.117-3.078,2.147-4.118,3.68c-2.672,11.379-4.742,22.901-6.473,34.456c-0.175,6.604-0.033,13.219-0.351,19.823
		c-0.328,4.852,3.231,8.97,2.596,13.887c0.274-0.526,0.57-1.04,0.876-1.555c1.15,7.305,2.552,14.632,4.523,21.751
		c-3.001,5.356-7.064,10.021-10.087,15.366c-2.607,4.249-4.228,9.003-6.582,13.384c-2.913,4.983-6.035,9.846-8.762,14.939
		c4.786,6.013,9.747,11.872,14.764,17.699c1.928,2.344,2.804,5.432,2.88,8.444c0.197,8.061-0.044,16.122-0.055,24.183
		c-1.807,17.118-0.537,34.423-0.953,51.629c3.384,1.008,6.955,0.219,10.438,0.526c1.424,1.117,0.657,3.384,0.197,4.863
		c-1.03,2.004-1.249,4.753-3.505,5.816c-5.126,0.099-10.262,0.142-15.366-0.022c-0.449-0.296-1.325-0.898-1.774-1.205
		c0.208-23.087-0.263-46.186,0.471-69.251c0.679-6.013,0.832-12.157-0.427-18.093c-4.02-4.972-7.842-10.186-12.464-14.599
		c-6.407,12.069-12.978,24.051-19.484,36.066c-2.88,4.753-4.589,10.438-8.959,14.117c-3.538,3.33-7.688,6.013-10.777,9.791
		c2.223,4.249,5.41,7.886,7.743,12.069c0.449,4.096,1.457,9.441-2.289,12.354c-2.322,2.344-6.013,1.446-8.959,1.588
		c-4.633,0.164-8.674-2.355-12.551-4.523c-14.205-8.422-27.49-18.345-39.976-29.122c-5.301-4.02-4.03-11.927-8.685-16.374
		c-6.232,4.381-11.029,10.492-17.502,14.577c-2.333-2.464-4.655-4.972-6.363-7.918c3.581-3.297,7.371-6.341,11.084-9.485
		c3.406-2.902,6.177-6.615,10.142-8.817c3.089-0.504,6.67-0.482,8.97,1.982c4.403,4.6,6.21,10.93,8.532,16.702
		c1.807,2.848,4.775,4.709,7.305,6.878c8.948,7.699,18.805,14.26,28.717,20.645c3.286,1.818,6.374,4.348,10.229,4.841
		c-1.358-6.287-7.141-10.569-9.507-16.428c-0.526-2.059,1.917-3.089,3.001-4.436c6.385-6.33,15.059-10.941,18.619-19.604
		c6.615-12.015,12.968-24.182,19.55-36.219c1.117-2.694,3.647-5.082,3.811-8.006c-4.994-5.805-9.572-11.971-14.753-17.611
		c-0.581-0.153-1.731-0.482-2.311-0.646c-4.206,10.81-7.875,21.839-11.752,32.78c-0.723,1.719-0.964,4.249-3.209,4.556
		c-8.05-9.112-16.1-18.225-23.547-27.841c-4.666-7.491-7.962-15.749-11.336-23.876c-1.588-3.647-2.508-8.17-6.298-10.208
		c-9.397-5.608-18.871-11.073-28.257-16.669c-6.922-4.95-11.664-12.497-18.728-17.195c-8.762-0.241-17.545,0.12-26.307-0.153
		c-0.23-7.864-0.077-15.727-0.109-23.58c-0.175-2.979,1.577-5.509,2.738-8.094c-5.191,1.161-10.339,2.607-15.706,2.453
		c-0.964-3.165-1.358-6.462-1.194-9.758c6.801-0.821,13.351-3.286,20.294-2.979c3.625,0.208,7.623-0.734,11.018,0.81
		c0.745,3.143,1.555,7.491-1.051,9.967c-2.716,2.716-5.947,5.378-6.988,9.255c-0.668,4.118-0.559,8.4,0.471,12.464
		c7.831,1.577,15.881-0.055,23.788,0.986c7.415,6.922,13.581,15.541,22.835,20.185c4.239,2.267,8.017,5.64,12.869,6.539
		c-2.267-7.579-0.701-15.541-1.358-23.284c-0.953,6.254-0.109,12.606-0.778,18.893c-0.515-6.571,0.482-13.197-0.23-19.725
		c-3.713-10.043-7.688-19.999-11.423-30.042c-0.986-1.522,0.109-3.056,0.668-4.479c6.111-14.49,11.872-29.133,18.071-43.59
		c2.136-5.158-0.613-10.47-1.632-15.552C1028.475,445.181,1026.219,438.883,1025.463,432.279z"/>
	<path fill="#656565" stroke="#656565" stroke-width="0.1027" d="M288.641,484.937c-0.186-8.159,0.022-16.319-0.077-24.478
		c0.482,0.493,1.468,1.479,1.961,1.96c0.361,5.673,0.033,11.357,0.131,17.042c-0.142,6.024,1.04,12.464-2.289,17.896
		c8.63,2.891,17.929,0.876,26.68-0.515c1.084,1.654,1.928,3.461,2.618,5.323c5.159,13.646,10.897,27.063,16.352,40.589
		c0.701,1.566,0.482,3.297,0.34,4.95c-1.259,0.219-2.519,0.427-3.768,0.635c1.008-0.832,1.993-1.698,2.99-2.563
		c-3.165-10.262-8.105-19.867-11.894-29.9c-2.497-5.849-4.228-12.026-7.316-17.611c-9.101,1.643-18.411,1.511-27.589,0.821
		C287.798,494.433,288.849,489.734,288.641,484.937z"/>
	<path stroke="#000000" stroke-width="0.1027" d="M776.88,471.291c1.742-1.643,3.34-4.293,6.133-3.603
		c4.6,5.213,9.233,10.438,13.406,16.023c-2.924,3.45-6.319,6.801-7.404,11.346c-3.067,9.189,0.438,18.75,3.713,27.37
		c8.707,20.426,22.386,38.3,36.821,54.991c11.5,13.647,24.599,25.782,37.117,38.475c5.805,5.892,12.168,11.193,18.257,16.801
		c3.549,3.209,7.557,6.013,10.514,9.835c-2.935,3.538-6.144,6.867-8.74,10.667c-0.328,6.768-1.511,13.438-2.289,20.163
		c-0.318,9.298-4.6,18.027-4.567,27.315c-0.285-1.457-0.559-2.902-0.821-4.337c-0.12,3.625-0.832,7.217-2.158,10.613
		c-7.196,22.332-17.973,43.984-34.248,61.113c-15.245,16.341-36.668,28.947-59.668,27.753c-21.138,1.238-41.378-9.189-56.086-23.766
		c-17.699-16.713-29.374-38.837-37.095-61.694c-1.939-7.108-5.388-14.085-4.841-21.62c-0.285,1.051-0.548,2.114-0.81,3.187
		c-1.665-12.026-4.677-23.92-4.885-36.099c-1.073-11.642-1.073-23.438-0.011-35.08c0.099-11.544,2.738-22.846,4.786-34.16
		c0.997-5.739,4.041-11.27,3.023-17.206c0.23,1.019,0.482,2.048,0.745,3.078c6.758-23.668,18.411-46.175,34.971-64.498
		c10.218-10.339,22.277-19.254,36.131-24.029c3.625-1.402,7.634-1.544,11.171-3.242C772.521,477.709,774.066,474.018,776.88,471.291
		 M756.433,510.029c-13.778,8.083-24.194,20.765-32.2,34.379c-12.595,21.543-19.188,46.12-21.959,70.762
		c-1.413,12.026-0.898,24.183-0.767,36.274c1.555,25.99,7.732,51.903,19.692,75.132c7.94,14.862,18.465,28.837,32.736,38.136
		c11.314,7.393,25.606,11.095,38.935,7.864c7.228-0.964,13.504-4.972,19.791-8.4c3.877-1.928,7.283-4.731,9.737-8.324
		c-3.636,1.928-7.228,4.009-11.138,5.301c-6.144,1.5-12.518,0.329-18.454-1.49c-12.343-7.24-18.706-21.258-21.269-34.795
		c-0.515-8.806-0.537-17.644,0.044-26.45c2.147-10.328,6.177-20.634,13.526-28.399c5.29-5.016,12.201-9.145,19.758-8.565
		c7.535-0.537,14.391,3.549,19.725,8.51c2.705,4.633,6.319,8.74,8.346,13.778c3.877,8.422,4.917,17.743,6.002,26.844
		c0.033,6.506-1.522,12.902-2.585,19.287c-1.435,7.721-5.87,14.216-9.452,21.017c4.009-1.555,6.024-5.531,8.4-8.817
		c3.669-5.629,8.061-11.029,9.879-17.611c12.551-24.215,17.622-51.607,19.232-78.604c-1.424-2.902-4.304-4.698-6.56-6.889
		c-9.605-8.269-18.17-17.644-27.238-26.461c-14.577-15.454-28.782-31.378-40.797-48.945c-11.741-17.294-22.605-36.372-24.402-57.609
		C762.183,506.732,759.28,508.375,756.433,510.029 M797.722,676.01c-8.433,5.783-12.409,15.99-14.008,25.716
		c-0.657,10.514-1.172,21.51,3.1,31.422c2.804,6.33,6.79,12.792,13.165,16.034c4.337,0.931,9.517,1.139,13.066-2.037
		c7.437-6.177,12.332-15.804,12.157-25.563c0.34,1.008,0.679,2.026,1.052,3.056c-0.405-5.947,1.402-11.872,0.263-17.775
		c-1.128-10.919-4.085-22.813-13.055-29.987C809.178,673.184,802.213,672.187,797.722,676.01z"/>
	<path stroke="#000000" stroke-width="0.1027" d="M527.914,536.654c17.995-19.079,35.157-39.844,44.707-64.585
		c1.719,0.12,3.527,0.142,5.158,0.887c5.41,2.114,11.095,3.516,16.341,6.057c-3.921,11.489-9.901,22.113-16.297,32.364
		c-1.38,1.851,0.778,3.581,1.665,5.082c14.862,18.816,24.533,41.301,30.381,64.432c3.921,16.625,6.637,33.601,6.319,50.731
		c2.3,7.261-0.504,14.643-0.197,22.003c-0.066,14.424-3.417,28.498-5.947,42.615c-0.263-1.435-0.493-2.88-0.745-4.304
		c0.909,6.024-1.851,11.576-3.373,17.239c-7.623,23.087-19.44,45.211-36.821,62.439c-15.103,14.435-35.222,25.453-56.678,24.204
		c-20.623,1.161-40.118-8.992-54.882-22.715c-19.188-18.005-31.531-42.111-39.417-66.94c-3.8-12.157-6.363-24.654-8.05-37.238
		c-0.372-2.716,0.515-5.838-1.172-8.192c-3.702-5.476-7.097-11.149-10.624-16.735c-1.205-1.566-0.723-4.008,1.161-4.775
		c36.033-23.098,70.379-48.88,102.524-77.136C510.5,553.487,520.105,545.974,527.914,536.654 M548.494,548.351
		c-35.08,37.15-75.658,68.605-117.616,97.562c0.011,9.791,2.64,19.462,2.103,29.308c0.372-1.019,0.657-2.081,1.03-3.089
		c0.011,5.673,1.763,11.106,2.924,16.604c5.947,24.062,16.516,47.598,33.93,65.571c8.619,8.357,18.925,15.64,30.874,18.137
		c11.467,3.056,23.788,0.624,34.248-4.644c2.672-1.413,5.64-2.683,7.404-5.268c-5.159,0.088-10.47-0.471-14.95-3.253
		c-11.138-6.582-17.863-18.75-20.36-31.181c-2.322-8.159-1.544-16.713-1.457-25.07c1.949-12.42,5.958-25.453,15.629-34.083
		c6.659-6.812,17.042-9.211,26.099-6.549c6.013,2.169,11.456,6.078,15.081,11.39c8.039,10.788,11.763,24.478,11.062,37.862
		c-0.405,5.06,0.843,10.503-1.479,15.213c2.234-2.486,4.052-5.323,4.939-8.576c1.347-1.73,2.497-3.614,3.231-5.684
		c4.83-12.54,8.63-25.541,10.689-38.837c1.709-7.086,1.413-14.457,2.935-21.576c0.438-9.769,0.427-19.572,0.394-29.341
		c-0.318,4.162-0.186,8.367-1.128,12.464c0.416-7.469-1.216-14.742-1.27-22.178c-0.471-4.819-2.103-9.463-2.201-14.336
		c-4.6-23.81-13.219-47.226-27.742-66.841C558.088,537.431,553.291,542.896,548.494,548.351 M536.764,674.246
		c-5.597,2.059-9.276,7.13-12.234,12.047c-6.243,12.946-7.612,28.235-3.57,42.046c1.906,7.239,5.465,14.391,11.511,19.035
		c3.625,3.176,8.915,2.541,13.307,1.796c5.378-2.738,8.97-7.918,11.631-13.176c5.29-10.722,5.783-23.12,4.173-34.773
		c-1.095-8.137-4.688-15.881-10.175-21.981C547.815,675.254,542.163,672.242,536.764,674.246z"/>
	<path fill="#FFFFFF" stroke="#FFFFFF" stroke-width="0.1027" d="M756.433,510.029c2.848-1.654,5.75-3.297,8.981-4.074
		c1.796,21.236,12.661,40.315,24.402,57.609c12.015,17.567,26.22,33.492,40.797,48.945c9.068,8.817,17.633,18.192,27.238,26.461
		c2.256,2.19,5.137,3.987,6.56,6.889c-1.61,26.997-6.681,54.389-19.232,78.604c-3.505,4.83-5.903,10.405-9.89,14.895
		c1.106-7.097,4.271-13.811,4.359-21.061c0.066-7.469,0.591-15.103-1.479-22.375c-2.421-9.474-5.706-19.572-13.581-25.957
		c-5.334-4.961-12.19-9.047-19.725-8.51c-7.557-0.58-14.468,3.549-19.758,8.565c-7.349,7.765-11.379,18.071-13.526,28.399
		c-0.581,8.806-0.559,17.644-0.044,26.45c2.563,13.537,8.926,27.556,21.269,34.795c5.816,4.633,13.592,3.965,20.404,2.475
		c-0.131,0.515-0.405,1.533-0.548,2.037c-6.287,3.428-12.562,7.437-19.791,8.4c-13.329,3.231-27.622-0.471-38.935-7.864
		c-14.271-9.298-24.796-23.273-32.736-38.136c-11.96-23.23-18.137-49.143-19.692-75.132c-0.131-12.091-0.646-24.248,0.767-36.274
		c2.771-24.643,9.364-49.219,21.959-70.762C732.239,530.794,742.655,518.111,756.433,510.029z"/>
	<path fill="#727272" stroke="#727272" stroke-width="0.1027" d="M966.661,529.25c1.04-3.877,4.271-6.539,6.988-9.255
		c-1.271,2.782-3.341,5.093-4.808,7.776c-0.734,4.052-0.339,8.225-0.109,12.332c7.097,0.581,14.238-0.318,21.335,0.438
		c0.219,0.537,0.635,1.621,0.854,2.158c-7.907-1.04-15.957,0.591-23.788-0.986C966.102,537.65,965.993,533.368,966.661,529.25z"/>
	<path fill="#FFFFFF" stroke="#FFFFFF" stroke-width="0.1027" d="M548.494,548.351c4.797-5.454,9.594-10.919,14.369-16.396
		c14.523,19.615,23.142,43.031,27.742,66.841c0.099,4.874,1.73,9.518,2.201,14.336c0.055,7.437,1.687,14.709,1.27,22.178
		c-1.796,9.528-0.712,19.276-2.004,28.859c-1.818,11.215-3.614,22.474-7.009,33.349c-2.004,7.042-5.005,13.756-7.108,20.765
		c-0.887,3.253-2.705,6.089-4.939,8.576c2.322-4.709,1.073-10.153,1.479-15.213c0.701-13.384-3.023-27.074-11.062-37.862
		c-3.625-5.312-9.068-9.222-15.081-11.39c-9.057-2.661-19.44-0.263-26.099,6.549c-9.671,8.63-13.679,21.664-15.629,34.083
		c-0.088,8.357-0.865,16.91,1.457,25.07c2.497,12.431,9.222,24.599,20.36,31.181c4.479,2.782,9.791,3.34,14.95,3.253
		c-1.763,2.585-4.731,3.855-7.404,5.268c-10.459,5.268-22.781,7.699-34.248,4.644c-11.949-2.497-22.255-9.78-30.874-18.137
		c-17.414-17.973-27.983-41.509-33.93-65.571c-1.161-5.498-2.913-10.93-2.924-16.604c-0.372,1.008-0.657,2.07-1.03,3.089
		c0.537-9.846-2.092-19.517-2.103-29.308C472.836,616.955,513.414,585.501,548.494,548.351z"/>
	<path fill="#757575" stroke="#757575" stroke-width="0.1027" d="M594.077,635.311c0.942-4.096,0.81-8.302,1.128-12.464
		c0.033,9.769,0.044,19.572-0.394,29.341c-1.522,7.119-1.227,14.49-2.935,21.576c-2.059,13.296-5.859,26.296-10.689,38.837
		c-0.734,2.07-1.884,3.954-3.231,5.684c2.103-7.009,5.104-13.723,7.108-20.765c3.395-10.876,5.191-22.134,7.009-33.349
		C593.365,654.587,592.281,644.84,594.077,635.311z"/>
	<path fill="#929292" stroke="#929292" stroke-width="0.1027" d="M824.588,669.964c7.875,6.385,11.16,16.483,13.581,25.957
		c2.07,7.272,1.544,14.906,1.479,22.375c-0.088,7.25-3.253,13.964-4.359,21.061c3.987-4.49,6.385-10.065,9.89-14.895
		c-1.818,6.582-6.21,11.982-9.879,17.611c-2.377,3.286-4.392,7.261-8.4,8.817c3.581-6.801,8.017-13.296,9.452-21.017
		c1.062-6.385,2.618-12.781,2.585-19.287c-1.084-9.101-2.125-18.422-6.002-26.844C830.908,678.704,827.294,674.597,824.588,669.964z
		"/>
	<path fill="#009EFE" stroke="#009EFE" stroke-width="0.1027" d="M797.722,676.01c4.49-3.822,11.456-2.826,15.738,0.865
		c8.97,7.174,11.927,19.068,13.055,29.987c1.139,5.903-0.668,11.828-0.263,17.775c-0.372-1.03-0.712-2.048-1.052-3.056
		c0.175,9.758-4.72,19.385-12.157,25.563c-3.548,3.176-8.729,2.968-13.066,2.037c-6.374-3.242-10.361-9.704-13.165-16.034
		c-4.271-9.912-3.757-20.908-3.1-31.422C785.314,692,789.289,681.793,797.722,676.01z"/>
	<path fill="#009EFE" stroke="#009EFE" stroke-width="0.1027" d="M536.764,674.246c5.4-2.004,11.051,1.008,14.643,4.994
		c5.487,6.1,9.079,13.844,10.175,21.981c1.61,11.653,1.117,24.051-4.173,34.773c-2.661,5.257-6.254,10.438-11.631,13.176
		c-4.392,0.745-9.682,1.38-13.307-1.796c-6.046-4.644-9.605-11.796-11.511-19.035c-4.041-13.811-2.672-29.1,3.57-42.046
		C527.487,681.376,531.167,676.305,536.764,674.246z"/>
	<path fill="#9F9F9F" stroke="#9F9F9F" stroke-width="0.1027" d="M811.259,761.152c3.91-1.292,7.502-3.373,11.138-5.301
		c-2.453,3.592-5.859,6.396-9.737,8.324c0.142-0.504,0.416-1.522,0.548-2.037c-6.812,1.49-14.588,2.158-20.404-2.475
		C798.741,761.481,805.115,762.653,811.259,761.152z"/>
	<path stroke="#000000" stroke-width="0.1027" d="M574.505,822.397c16.669-4.271,33.58-7.513,50.698-9.266
		c15.344-0.558,30.699-0.58,46.043-0.066c26.11,2.727,51.694,9.89,75.68,20.59c46.766,20.93,87.596,53.283,122.961,89.994
		c4.939,6.341,11.281,11.478,15.848,18.148c0.942,1.347,2.114,2.53,3.351,3.669c5.914-3.439,11.62-7.886,18.673-8.576
		c6.878-0.58,14.26-0.832,20.514,2.585c-0.909,2.935-1.895,5.859-2.957,8.751c-1.446,3.614-3.077,7.163-4.709,10.711
		c-4.326,0.088-9.167-1.424-13.033,1.139c-7.075,4.578-11.916,11.741-16.056,18.914c-5.148,8.926-8.006,18.882-11.949,28.322
		c-7.349-1.106-14.523-3.187-21.587-5.41c3.932-13.471,8.937-26.8,16.505-38.694c0.679-1.248,2.092-3.067,0.745-4.337
		c-30.283-32.572-63.917-62.471-102.436-84.989c-28.87-17.239-60.741-29.56-93.784-35.759c-4.742-0.602-9.495-1.599-14.282-0.953
		c1.468-0.307,2.946-0.613,4.436-0.964c-5.531-0.318-11.095-0.197-16.549-1.227c-12.989-0.405-26.088-0.887-38.99,0.832
		c-7.239-0.197-14.238,1.796-21.39,2.596c-4.611,1.194-9.309,2.267-14.107,1.971c1.446,0.274,2.913,0.559,4.381,0.865
		c-3.8,0.033-7.557,0.701-11.149,1.895c-60.204,16.33-113.728,52.122-157.164,96.259c1.741,4.567,2.618,9.419,2.574,14.315
		c-0.088,6.166,0.723,12.617-1.73,18.465c-2.979,8.4-9.397,15.41-17.239,19.561c-4.096-6.254-7.02-13.187-10.876-19.594
		c2.026-2.07,4.556-3.636,6.221-6.035c3.702-8.915,0.296-18.608-3.089-27.063c-4.469-9.934-9.441-19.78-16.341-28.268
		c5.334-4.95,11.598-8.795,17.162-13.493c0.482,0.066,1.435,0.186,1.917,0.241c5.169,7.831,10.295,15.695,14.424,24.139
		c1.369-0.164,2.497-0.767,3.362-1.829c40.896-40.063,89.962-72.394,144.164-91.309c2.092-0.81,4.304-1.259,6.538-1.479
		c-0.449-0.285-0.898-0.548-1.336-0.799C564.988,825.76,569.642,823.657,574.505,822.397z"/>
	<path fill="#828282" stroke="#828282" stroke-width="0.1027" d="M904.496,936.311c3.724-0.712,7.502-2.048,11.346-1.391
		c4.666,0.876,9.561,1.314,13.745,3.8c-0.099,3.603-2.136,6.747-4.271,9.507c1.062-2.891,2.048-5.816,2.957-8.751
		c-6.254-3.417-13.635-3.165-20.514-2.585c-7.053,0.69-12.759,5.137-18.673,8.576c-1.238-1.139-2.41-2.322-3.351-3.669
		c1.205,0.646,2.41,1.325,3.636,2.037C894.245,941.01,898.866,937.472,904.496,936.311z"/>
	<path fill="#696969" stroke="#696969" stroke-width="0.1027" d="M858.026,1274.122c1.949,8.05,0.789,16.374,1.008,24.566
		c-0.307,8.061,1.358,16.034,1.062,24.095c0.186,16.396-0.383,32.846,1.435,49.187c1.479,11.27,0.022,22.682,1.566,33.952
		c0.712,5.553,1.117,11.171,0.613,16.779c-2.541-10.109-1.774-20.656-2.618-30.962c-2.585-21.061-0.832-42.396-3.121-63.457
		C858.091,1310.231,857.04,1292.149,858.026,1274.122z"/>
</g>
</svg>
